<?xml version="1.0" encoding="UTF-8"?>
<!-- Created with Inkscape (http://www.inkscape.org/) -->
<svg width="145mm" height="107.6mm" version="1.1" viewBox="0 0 145 107.6" xml:space="preserve"
     xmlns="http://www.w3.org/2000/svg"><defs><clipPath id="clipPath3001"><path d="m0 1439.9v-1439.9h4316.3v1439.9z"/></clipPath></defs>
    <g transform="matrix(.11541 0 0 -.11541 5.2118 177.47)" clip-path="url(#clipPath3001)"><path d="m777.25 974.42c0.938-4.668 6.121-11.242 6.121-11.242 16.692-28.778 143.56-102.75 265.13-107.58 0 0-36.58-29.539-38.07-29.375-107.7 12.199-256.9 47.394-430.51 107.25-53.633 18.488-139.38 51.269-234.29 91.127-172.85 79.12-222.82 92.15-326.09 112.62l47.828 32.05s138.99-64.52 317.82-53.58c126.65 7.76 248.27 132.11 248.27 132.11 272.45 50.59 528.42-7.96 512.38-10.79-198.77-35.08-262.7-91.41-362.51-241.94 0 0-8.187-10.058-6.082-20.652" fill="#295cb3"/>
        <path d="m777.25 974.42c0.938-4.668 6.121-11.242 6.121-11.242 16.692-28.778 143.56-102.75 265.13-107.58 0 0-36.58-29.539-38.07-29.375-107.7 12.199-256.9 47.394-430.51 107.25-53.633 18.488-139.38 51.269-234.29 91.127-172.85 79.12-222.82 92.15-326.09 112.62l47.828 32.05s138.99-64.52 317.82-53.58c126.65 7.76 248.27 132.11 248.27 132.11 272.45 50.59 528.42-7.96 512.38-10.79-198.77-35.08-262.7-91.41-362.51-241.94 0 0-8.187-10.058-6.082-20.652z"
              fill="none" stroke="#295cb3" stroke-linecap="round" stroke-linejoin="round" stroke-miterlimit="3.8637"
              stroke-width="2.55"/>
        <path d="m911.64 1282.6c-66.559 96.64-173.14 156.02-299.07 156.02-181.36 0-331.69-130.5-361.38-303.38l13.375-2.17c28.64 166.43 173.38 292.01 348 292.01 117.92 0 217.52-53.54 282.18-142.3l16.891-0.18"
              fill="#295cb3"/>
        <path d="m911.64 1282.6c-66.559 96.64-173.14 156.02-299.07 156.02-181.36 0-331.69-130.5-361.38-303.38l13.375-2.17c28.64 166.43 173.38 292.01 348 292.01 117.92 0 217.52-53.54 282.18-142.3z"
              fill="none" stroke="#295cb3" stroke-linecap="round" stroke-linejoin="round" stroke-miterlimit="3.8637"
              stroke-width="2.55"/>
        <path d="m246.43 1055.3 13.965-7.53c10.664-185.61 163.88-329.62 352.17-329.62 106.67 0 199.23 45.105 264.03 119.8l14.914-3.399c-67.309-80.644-165.67-129.95-278.94-129.95-198.12 0-358.97 154.33-366.13 350.7"
              fill="#295cb3"/>
        <path d="m246.43 1055.3 13.965-7.53c10.664-185.61 163.88-329.62 352.17-329.62 106.67 0 199.23 45.105 264.03 119.8l14.914-3.399c-67.309-80.644-165.67-129.95-278.94-129.95-198.12 0-358.97 154.33-366.13 350.7z"
              fill="none" stroke="#295cb3" stroke-linecap="round" stroke-linejoin="round" stroke-miterlimit="3.8637"
              stroke-width="2.55"/>
        <path d="m919.1 895.57c29.836 51.836 46.903 111.95 46.903 176.05 0 32.58-3.387 58.02-11.645 87.98l11.899 7.74c9.312-32.33 13.281-60.39 13.281-95.72 0-66-17.418-127.9-47.895-181.41l-12.543 5.363"
              fill="#295cb3"/>
        <path d="m919.1 895.57c29.836 51.836 46.903 111.95 46.903 176.05 0 32.58-3.387 58.02-11.645 87.98l11.899 7.74c9.312-32.33 13.281-60.39 13.281-95.72 0-66-17.418-127.9-47.895-181.41z"
              fill="none" stroke="#295cb3" stroke-linecap="round" stroke-linejoin="round" stroke-miterlimit="3.8637"
              stroke-width="2.55"/></g></svg>

