<?xml version="1.0" encoding="UTF-8"?>
<!-- Created with Inkscape (http://www.inkscape.org/) -->
<svg width="105.83mm" height="107.6mm" version="1.1" viewBox="0 0 105.83 107.6" xml:space="preserve"
     xmlns="http://www.w3.org/2000/svg">
    <g transform="translate(-52.166 -94.701)">
        <path d="m120.6 191.41-1.9403-0.61636 0.089-2.2439c0.0489-1.2341 0.15325-2.3082 0.2318-2.3867 0.0786-0.0785 0.59413 0.0889 1.1457 0.37211 1.4719 0.75567 4.9915 1.4044 6.3891 1.1776 1.9545-0.31717 2.9041-1.1268 2.9041-2.4759 0-1.5525-0.66973-2.0962-4.3717-3.5496-5.1447-2.0197-6.5644-3.5898-6.5644-7.2594 0-3.2141 1.9932-5.8106 5.1153-6.6634 2.5208-0.68858 8.0957-0.3298 9.6234 0.61932 0.32933 0.20459 0.3867 0.82941 0.21235 2.3128-0.2312 1.9672-0.26834 2.0257-1.1568 1.8207-2.2812-0.52626-6.3872-0.64115-7.433-0.20798-1.0949 0.45352-1.6795 1.648-1.2959 2.6477 0.28996 0.75562 2.1761 1.8265 4.6997 2.6682 2.6615 0.88773 4.8274 2.4042 5.6185 3.934 0.69209 1.3384 0.77222 4.1809 0.16937 6.0076-0.53215 1.6124-2.7407 3.635-4.5037 4.1246-2.049 0.56899-6.719 0.42195-8.9326-0.28125zm20.486 0.0416c-2.4812-1.2652-2.658-1.8443-2.7809-9.1081l-0.11001-6.5017h-1.0365c-1.0086 0-1.0365-0.0474-1.0365-1.7639v-1.7639h1.1947c1.1568 0 1.2022-0.0531 1.4312-1.6757 0.41051-2.9082 0.41229-2.9104 2.3368-2.9104h1.7401v4.5861h4.5861v3.4941l-4.4097 0.21005-0.0971 5.3298c-0.11312 6.2084 0.10936 6.8102 2.5666 6.9418l1.4111 0.0756 0.10565 1.63c0.0937 1.4458 0.014 1.6545-0.70555 1.8473-1.5312 0.41013-3.9872 0.22531-5.1959-0.39099zm-73.756-11.696v-12.027l5.7326 4e-3c8.6138 6e-3 11.073 0.93913 12.909 4.897 0.779 1.679 0.93864 2.5887 1.056 6.0174 0.23099 6.7468-1.043 10.043-4.5996 11.901-1.8138 0.94732-2.0647 0.98003-8.4837 1.1059l-6.6146 0.12975zm12.006 6.8402c1.8234-0.94292 2.2775-2.3133 2.2775-6.8732 0-6.2196-1.0164-7.4083-6.3347-7.4083h-2.6572v14.817h2.8397c1.8483 0 3.201-0.18683 3.8746-0.53514zm10.925-6.8875v-12.009l5.7794 0.20492 3.0915 7.7611c1.7003 4.2686 3.0987 7.9596 3.1075 8.2021 0.0475 1.3032 0.84644-0.3451 3.767-7.7712l3.2217-8.192 6.0801-0.20385v24.016h-4.9248l-0.0952-7.4171-0.0952-7.4171-5.8883 14.869-3.6322-0.21093-2.8245-7.3163c-1.5535-4.024-2.9038-7.3182-3.0009-7.3205-0.09701-2e-3 -0.12779 3.3297-0.06839 7.4045l0.108 7.4087h-4.6257zm-8.4087-18.858c-1.4233-0.26011-2.6293-0.52547-2.68-0.58967-0.12294-0.15583 0.55959-24.073 0.69117-24.22 0.05651-0.0632 12.381-0.20645 27.387-0.31839 27.243-0.20322 27.291-0.20231 31.915 0.5989 4.521 0.78342 4.6437 0.82857 5.1809 1.9059 0.67975 1.3632 0.75355 0.39305 0.12726-1.6727-0.40806-1.3459-0.47267-1.3867-4.6056-2.9046-3.7606-1.3812-4.7766-1.596-9.8778-2.0887-8.5554-0.82622-26.921-1.5657-39.062-1.5728l-10.798-6e-3 -0.19771-4.6743c-0.18854-4.4576-1.1932-9.8104-1.991-10.608-1.0429-1.0429-2.4328 5.3884-2.5495 11.796l-0.06158 3.3821-4.7615 0.22836c-2.6188 0.12559-6.0857 0.22835-7.7043 0.22835-2.8693 0-2.9428-0.0211-2.9428-0.84478 0-1.193 1.3279-5.3552 2.3754-7.4455 1.4387-2.871 3.7892-5.9412 6.333-8.2721 2.8702-2.6301 8.2659-5.4319 11.929-6.1946 3.6236-0.75441 9.3452-0.67606 12.732 0.17433 3.2594 0.81844 7.9555 3.08 9.9619 4.7974 0.77407 0.66258 1.5259 1.2047 1.6708 1.2047s0.75463-0.37436 1.355-0.8319c4.3642-3.3258 10.873-4.6135 16.246-3.214 4.6064 1.1998 9.1184 4.6314 11.418 8.684 1.3022 2.2948 2.5313 6.7204 2.5313 9.1144v1.6452l2.2049 0.41004c4.9907 0.92811 9.4278 4.4099 11.637 9.1319 1.4389 3.0748 1.7549 7.3806 0.80055 10.906-1.1935 4.4093-4.6362 8.4496-8.9351 10.486l-2.3564 1.1164-27.693 0.0605c-21.841 0.0477-28.24-0.0394-30.281-0.41243zm-8.464-3.0343c-4.9037-2.7141-9.6675-8.1027-11.821-13.371-0.96777-2.368-1.984-6.28-1.9931-7.6729l-0.0052-0.79375h16.147l0.25853 11.031c0.14219 6.0672 0.20016 11.303 0.12883 11.634-0.11098 0.51589-0.50289 0.39638-2.7149-0.82792z"
              fill="#0163ad"/>
    </g>
</svg>
